Coordinates
version=1
nRows=19
nColumns=63
inDegrees=yes

Units are S.I. units (second, meters, Newtons, ...)
If the header above contains a line with 'inDegrees', this indicates whether rotational values are in degrees (yes) or radians (no).

endheader
time	pelvis_tilt	pelvis_list	pelvis_rotation	pelvis_tx	pelvis_ty	pelvis_tz	hip_flexion_r	hip_adduction_r	hip_rotation_r	knee_angle_r	knee_angle_r_beta	ankle_angle_r	subtalar_angle_r	mtp_angle_r	hip_flexion_l	hip_adduction_l	hip_rotation_l	knee_angle_l	knee_angle_l_beta	ankle_angle_l	subtalar_angle_l	mtp_angle_l	L5_S1_Flex_Ext	L5_S1_Lat_Bending	L5_S1_axial_rotation	L4_L5_Flex_Ext	L4_L5_Lat_Bending	L4_L5_axial_rotation	L3_L4_Flex_Ext	L3_L4_Lat_Bending	L3_L4_axial_rotation	L2_L3_Flex_Ext	L2_L3_Lat_Bending	L2_L3_axial_rotation	L1_L2_Flex_Ext	L1_L2_Lat_Bending	L1_L2_axial_rotation	L1_T12_Flex_Ext	L1_T12_Lat_Bending	L1_T12_axial_rotation	Abs_r3	Abs_r2	Abs_r1	Abs_t1	Abs_t2	neck_flexion	neck_bending	neck_rotation	arm_flex_r	arm_add_r	arm_rot_r	elbow_flex_r	pro_sup_r	wrist_flex_r	wrist_dev_r	arm_flex_l	arm_add_l	arm_rot_l	elbow_flex_l	pro_sup_l	wrist_flex_l	wrist_dev_l
3.491525	-0.502183	-9.798698	88.558120	0.100313	0.805074	0.651188	3.957340	-6.201311	-11.521303	12.263941	0.214046	35.642354	13.382253	0.000000	4.890063	2.088159	-7.793610	12.897850	0.225110	36.515858	13.703127	0.000000	0.005881	-0.566295	1.501821	0.010921	-0.753172	1.595685	0.009662	-1.376889	1.595685	0.006721	-1.376889	1.314093	0.005461	-1.154789	1.220229	0.003360	-0.877191	1.126366	0.042006	-6.406041	8.352676	0.000000	0.000000	18.199979	5.594562	-14.355506	1.895278	-16.542015	-16.287212	100.951453	76.384073	0.411036	13.993538	2.477741	-12.718313	144.068359	1.926202	3.675411	-5.358569	-19.652885
3.508475	-0.340084	-9.620171	88.788166	0.100356	0.805163	0.651480	3.661473	-6.060191	-12.138974	12.186943	0.212702	35.344567	13.726448	0.000000	4.736257	1.960473	-7.210000	12.878632	0.224775	36.383149	13.405019	0.000000	0.012827	-0.519384	1.367815	0.023820	-0.690781	1.453303	0.021073	-1.262830	1.453303	0.014660	-1.262830	1.196838	0.011911	-1.059128	1.111350	0.007329	-0.804526	1.025861	0.091619	-5.875374	7.607377	0.000000	0.000000	18.130376	5.536966	-14.041559	4.431970	-18.407607	-14.457408	98.963035	75.039057	1.819140	13.812644	2.492191	-12.435002	145.169167	1.459457	3.256632	-4.891440	-20.382265
3.525424	-0.186338	-9.508797	89.155032	0.100329	0.805190	0.651942	3.410105	-5.934393	-12.885103	12.097017	0.211133	35.064770	14.086716	0.000000	4.668649	1.846018	-6.538046	12.861694	0.224479	36.258259	13.122950	0.000000	0.021226	-0.476999	1.227807	0.039419	-0.634409	1.304545	0.034872	-1.159777	1.304545	0.024259	-1.159777	1.074331	0.019711	-0.972697	0.997593	0.012129	-0.738872	0.920855	0.151616	-5.395913	6.828693	0.000000	0.000000	18.060392	5.435706	-13.948209	7.092458	-20.097658	-12.158361	97.062289	73.701100	2.928943	13.555844	2.529056	-12.209926	145.690437	1.106012	2.857036	-4.399514	-21.070077
3.542373	-0.069731	-9.462623	89.642151	0.100282	0.805152	0.652563	3.206782	-5.847609	-13.727855	12.003854	0.209507	34.810080	14.432224	0.000000	4.680338	1.767338	-5.814296	12.845106	0.224189	36.133719	12.887757	0.000000	0.030359	-0.443862	1.081198	0.056380	-0.590336	1.148773	0.049877	-1.079205	1.148773	0.034697	-1.079205	0.946048	0.028192	-0.905123	0.878473	0.017347	-0.687542	0.810899	0.216852	-5.021051	6.013299	0.000000	0.000000	18.001626	5.312858	-14.088797	9.832204	-21.567757	-9.480758	95.258704	72.374636	3.648055	13.284166	2.589343	-12.061839	145.614498	0.893930	2.524382	-3.935643	-21.656335
3.559322	0.005884	-9.486382	90.206403	0.100303	0.805039	0.653317	3.071213	-5.791313	-14.559914	11.917215	0.207995	34.571025	14.669442	0.000000	4.775341	1.714112	-5.152339	12.836285	0.224035	36.015935	12.789008	0.000000	0.041089	-0.422420	0.939266	0.076307	-0.561818	0.997970	0.067506	-1.027072	0.997970	0.046961	-1.027072	0.821858	0.038156	-0.861399	0.763154	0.023478	-0.654328	0.704449	0.293498	-4.778498	5.223915	0.000000	0.000000	17.974043	5.167224	-14.534707	12.579210	-22.798364	-6.560807	93.570519	70.975338	3.899057	13.014695	2.688557	-11.981439	145.121701	0.797105	2.264039	-3.516168	-22.095671
3.576271	0.034762	-9.567219	90.831179	0.100395	0.804880	0.654168	2.993262	-5.775601	-15.406878	11.842841	0.206697	34.357143	14.841576	0.000000	4.925998	1.705716	-4.454045	12.815509	0.223673	35.869516	12.672922	0.000000	0.052243	-0.413353	0.804160	0.097020	-0.549759	0.854420	0.085830	-1.005026	0.854420	0.059708	-1.005026	0.703640	0.048513	-0.842909	0.653380	0.029852	-0.640284	0.603120	0.373166	-4.675930	4.472499	0.000000	0.000000	17.996577	5.035971	-15.191627	15.293234	-23.750589	-3.554390	91.980471	69.774329	3.688680	12.784624	2.830364	-11.972895	144.018387	0.867578	2.234433	-3.167525	-22.397816
3.593220	0.031315	-9.713196	91.509360	0.100556	0.804677	0.655086	2.988726	-5.783995	-16.201256	11.785081	0.205688	34.165685	14.872000	0.000000	5.141761	1.728636	-3.748357	12.791481	0.223253	35.685931	12.562023	0.000000	0.064777	-0.415821	0.686867	0.120298	-0.553042	0.729797	0.106423	-1.011027	0.729797	0.074034	-1.011027	0.601009	0.060152	-0.847942	0.558080	0.037014	-0.644107	0.515151	0.462699	-4.703850	3.820151	0.000000	0.000000	18.087829	4.869163	-16.105638	17.876949	-24.405137	-0.656466	90.523410	68.815356	2.989612	12.570243	3.013117	-11.973010	143.372118	0.891580	2.074533	-2.874238	-22.492655
3.610169	0.038491	-9.905793	92.261329	0.100715	0.804451	0.656098	3.047814	-5.785812	-16.995165	11.755811	0.205178	34.007028	14.825211	0.000000	5.415999	1.752084	-2.999234	12.781507	0.223079	35.473772	12.421225	0.000000	0.076584	-0.423405	0.582217	0.142224	-0.563129	0.618605	0.125820	-1.029468	0.618605	0.087528	-1.029468	0.509439	0.071116	-0.863408	0.473051	0.043760	-0.655855	0.436662	0.547031	-4.789646	3.238114	0.000000	0.000000	18.273150	4.648286	-17.123238	20.307403	-24.730062	2.000007	89.186965	68.221139	1.831924	12.412208	3.214306	-11.983647	142.428028	0.949583	2.032759	-2.562334	-22.521787
3.627119	0.034963	-10.152732	93.063587	0.100841	0.804233	0.657163	3.172438	-5.801339	-17.768033	11.735255	0.204819	33.890528	14.710807	0.000000	5.742034	1.799947	-2.197184	12.768690	0.222856	35.194478	12.238542	0.000000	0.088165	-0.439344	0.509172	0.163730	-0.584327	0.540995	0.144846	-1.068221	0.540995	0.100763	-1.068221	0.445525	0.081870	-0.895910	0.413702	0.050377	-0.680544	0.381879	0.629751	-4.969945	2.831860	0.000000	0.000000	18.565442	4.414239	-18.279485	22.466178	-24.760599	4.213801	88.002925	68.043233	0.372394	12.260295	3.457193	-11.991768	141.537623	0.986569	1.993613	-2.299970	-22.492547
3.644068	0.068042	-10.446703	93.844594	0.100992	0.804031	0.658305	3.394000	-5.783173	-18.404836	11.760373	0.205257	33.821216	14.513485	0.000000	6.115550	1.818425	-1.417618	12.754369	0.222606	34.883678	11.984117	0.000000	0.098573	-0.457201	0.488103	0.183060	-0.608078	0.518610	0.161946	-1.111640	0.518610	0.112659	-1.111640	0.427090	0.091535	-0.932325	0.396584	0.056325	-0.708205	0.366077	0.704097	-5.171955	2.714684	0.000000	0.000000	18.933937	4.069061	-19.597396	24.291908	-24.505380	5.809630	86.990732	68.071965	-1.401649	12.085081	3.769309	-11.972380	140.535610	1.029678	1.975393	-2.017652	-22.491792
3.661017	0.155680	-10.776241	94.699232	0.101024	0.803852	0.659541	3.684856	-5.724834	-19.034545	11.805515	0.206045	33.814577	14.300373	0.000000	6.552751	1.807766	-0.585656	12.760646	0.222715	34.572375	11.710015	0.000000	0.107373	-0.472990	0.494015	0.199403	-0.629076	0.524891	0.176404	-1.150027	0.524891	0.122717	-1.150027	0.432263	0.099707	-0.964521	0.401387	0.061353	-0.732661	0.370511	0.766957	-5.350554	2.747562	0.000000	0.000000	19.368065	3.673143	-20.852108	25.827193	-23.965792	6.741295	86.060619	68.573946	-3.255129	11.893494	4.132152	-11.915002	139.305948	1.075829	1.913682	-1.588742	-22.548542
3.677966	0.309640	-11.129700	95.621490	0.100897	0.803710	0.660890	4.036057	-5.625180	-19.688005	11.869416	0.207160	33.875569	14.152344	0.000000	7.045278	1.765324	0.317163	12.777986	0.223018	34.290209	11.406702	0.000000	0.113140	-0.483816	0.520674	0.210112	-0.643476	0.553217	0.185878	-1.176351	0.553217	0.129308	-1.176351	0.455590	0.105062	-0.986598	0.423048	0.064648	-0.749431	0.390506	0.808148	-5.473026	2.895835	0.000000	0.000000	19.804377	3.220051	-21.992187	27.116265	-23.204066	7.009992	85.168211	69.566701	-5.123860	11.763893	4.538678	-11.807844	137.772095	1.136289	1.849075	-0.995130	-22.665613
3.694915	0.530772	-11.494587	96.584095	0.100639	0.803616	0.662333	4.436243	-5.480547	-20.300918	11.946219	0.208501	33.996419	14.028551	0.000000	7.579965	1.687201	1.220022	12.799229	0.223389	34.069293	11.151243	0.000000	0.115325	-0.488918	0.563766	0.214170	-0.650261	0.599001	0.189467	-1.188755	0.599001	0.131805	-1.188755	0.493295	0.107091	-0.997002	0.458060	0.065897	-0.757334	0.422824	0.823754	-5.530739	3.135495	0.000000	0.000000	20.174757	2.705355	-23.011685	28.222331	-22.289165	6.687540	84.247277	71.083332	-6.944233	11.742278	4.981532	-11.659301	136.126365	1.209415	1.775518	-0.316201	-22.814330
3.711864	0.816243	-11.866867	97.634673	0.100188	0.803555	0.663839	4.862892	-5.299134	-20.940361	12.021278	0.209811	34.174622	13.937975	0.000000	8.159699	1.584093	2.174642	12.823467	0.223812	33.926176	10.961827	0.000000	0.114956	-0.487670	0.599179	0.213485	-0.648601	0.636627	0.188862	-1.185720	0.636627	0.131383	-1.185720	0.524281	0.106748	-0.994456	0.486833	0.065686	-0.755400	0.449384	0.821121	-5.516616	3.332451	0.000000	0.000000	20.443862	2.191922	-23.808077	29.256755	-21.309215	5.957064	83.195128	72.893111	-8.603315	11.856866	5.420587	-11.478011	134.335899	1.287566	1.689725	0.466861	-22.966679
3.728814	1.157557	-12.239925	98.751662	0.099541	0.803512	0.665391	5.308476	-5.094516	-21.596306	12.098112	0.211152	34.403737	13.884380	0.000000	8.774900	1.466305	3.150283	12.841965	0.224135	33.882449	10.855360	0.000000	0.111746	-0.479814	0.618867	0.207524	-0.638153	0.657546	0.183588	-1.166620	0.657546	0.127715	-1.166620	0.541508	0.103768	-0.978437	0.502829	0.063852	-0.743232	0.464150	0.798192	-5.427752	3.441950	0.000000	0.000000	20.583543	1.641566	-24.392503	30.320086	-20.349032	5.027302	81.941991	74.853462	-10.133649	12.041546	5.835767	-11.267546	132.548920	1.361177	1.606517	1.232859	-23.097621
3.745763	1.544036	-12.618932	99.910409	0.098728	0.803469	0.666972	5.779548	-4.880845	-22.265416	12.184735	0.212664	34.673076	13.860105	0.000000	9.422848	1.341779	4.122840	12.839856	0.224098	33.933316	10.845649	0.000000	0.106554	-0.465993	0.617773	0.197881	-0.619770	0.656384	0.175058	-1.133015	0.656384	0.121781	-1.133015	0.540552	0.098946	-0.950252	0.501941	0.060885	-0.721823	0.463330	0.761105	-5.271403	3.435870	0.000000	0.000000	20.602261	1.071999	-24.752698	31.483930	-19.472502	4.079741	80.468786	76.817295	-11.532440	12.249734	6.209955	-11.038575	130.901080	1.410769	1.534670	1.914416	-23.184023
3.762712	1.964988	-12.995553	101.092036	0.097765	0.803413	0.668559	6.263068	-4.666810	-22.946087	12.277712	0.214286	34.968937	13.854780	0.000000	10.091795	1.217366	5.066885	12.815835	0.223679	34.076237	10.939328	0.000000	0.098962	-0.446386	0.592129	0.183783	-0.593693	0.629137	0.162585	-1.085343	0.629137	0.113104	-1.085343	0.518113	0.091896	-0.910270	0.481105	0.056547	-0.691452	0.444097	0.706877	-5.049608	3.293243	0.000000	0.000000	20.517871	0.480482	-24.878198	32.794250	-18.726643	3.263971	78.781503	78.694497	-12.758931	12.373158	6.530274	-10.800072	129.511047	1.431276	1.483597	2.428019	-23.225025
3.779661	2.404389	-13.379556	102.246118	0.096724	0.803320	0.670150	6.771171	-4.463556	-23.591445	12.374391	0.215974	35.263437	13.857720	0.000000	10.782799	1.100472	5.936175	12.761847	0.222736	34.287988	11.132245	0.000000	0.091041	-0.423145	0.558606	0.169072	-0.562782	0.593519	0.149571	-1.028834	0.593519	0.104051	-1.028834	0.488781	0.084541	-0.862877	0.453868	0.052021	-0.655451	0.418955	0.650296	-4.786697	3.106801	0.000000	0.000000	20.379367	-0.109632	-24.857449	34.184435	-18.117028	2.522996	76.975077	80.431822	-13.667970	12.420542	6.821231	-10.566634	128.478156	1.424014	1.477407	2.790947	-23.216006
3.796610	2.856508	-13.740410	103.406004	0.095562	0.803199	0.671735	7.255957	-4.275772	-24.271706	12.474251	0.217717	35.564714	13.881517	0.000000	11.465956	0.992404	6.756666	12.698373	0.221628	34.566964	11.428538	0.000000	0.080177	-0.396150	0.500935	0.148896	-0.526880	0.532244	0.131722	-0.963200	0.532244	0.091634	-0.963200	0.438318	0.074452	-0.807829	0.407010	0.045813	-0.613637	0.375701	0.572693	-4.481330	2.786051	0.000000	0.000000	20.178111	-0.642755	-24.597798	35.742677	-17.675618	2.070519	75.027838	81.909948	-14.348226	12.250287	7.043527	-10.335291	127.829585	1.382000	1.476105	2.857049	-23.190781
